<svg t="1735637722805" class="icon" viewBox="0 0 1024 1024" version="1.1"
    xmlns="http://www.w3.org/2000/svg" p-id="4390" width="200" height="200">
    <path
        d="M635.84 298.672h-0.8c-4.064-40.368-37.744-72-79.2-72-18.096 0-34.592 6.24-48 16.368a79.296 79.296 0 0 0-48-16.368c-41.968 0-76.016 32.432-79.344 73.552a79.952 79.952 0 0 0-64.512 83.152c2.464 42.896 40.352 75.296 83.312 75.296h28.544v51.808c0 14.96 18.704 21.744 28.288 10.24l51.712-62.048h128c52.8 0 93.664-51.168 75.696-106.624-10.464-32.32-41.728-53.376-75.696-53.376z"
        fill="#e6e6e6" p-id="4391"></path>
    <path
        d="M443.968 534.512a24.32 24.32 0 0 1-8.304-1.472 23.76 23.76 0 0 1-15.824-22.576v-43.808h-20.544c-48.544 0-88.64-36.384-91.296-82.848a88.336 88.336 0 0 1 65.2-90.128 87.12 87.12 0 0 1 86.656-75.024c17.056 0 33.552 5.008 48 14.576a86.64 86.64 0 0 1 48-14.576 87.456 87.456 0 0 1 86.176 72.208c35.792 2.384 66.336 25.376 77.136 58.704 9.136 28.224 4.72 57.664-12.112 80.8a88.32 88.32 0 0 1-71.2 36.288h-124.256l-49.312 59.168a23.792 23.792 0 0 1-18.32 8.688z m15.872-299.84c-37.632 0-68.304 28.464-71.36 66.192a8.016 8.016 0 0 1-6.448 7.2 72.272 72.272 0 0 0-58.064 74.848c2.176 38 35.264 67.76 75.328 67.76h28.544a8 8 0 0 1 8 8v51.808c0 5.216 4.032 7.072 5.28 7.52s5.552 1.6 8.88-2.4l51.696-62.048a8 8 0 0 1 6.144-2.88h128a72.32 72.32 0 0 0 58.272-29.696c13.776-18.96 17.36-43.168 9.824-66.464-9.12-28.16-37.12-47.84-68.096-47.84h-0.816a7.968 7.968 0 0 1-7.952-7.2 71.552 71.552 0 0 0-71.232-64.8c-15.488 0-30.416 5.104-43.184 14.736a8 8 0 0 1-9.648 0 71.12 71.12 0 0 0-43.168-14.736zM944 200h-64a8 8 0 0 1 0-16h64a8 8 0 0 1 0 16zM864 104h-64a8 8 0 0 1 0-16h64a8 8 0 0 1 0 16z"
        fill="#e6e6e6" p-id="4392"></path>
    <path
        d="M832 136a8 8 0 0 1-8-8V64a8 8 0 0 1 16 0v64a8 8 0 0 1-8 8zM912 232a8 8 0 0 1-8-8v-64a8 8 0 0 1 16 0v64a8 8 0 0 1-8 8zM96 936H80a8 8 0 0 1 0-16h16a8 8 0 0 1 0 16zM304 936H128a8 8 0 0 1 0-16h176a8 8 0 0 1 0 16zM880 936h-16a8 8 0 0 1 0-16h16a8 8 0 0 1 0 16zM832 936H656a8 8 0 0 1 0-16h176a8 8 0 0 1 0 16zM608 1000a8 8 0 0 1-8-8v-144a8 8 0 0 1 16 0v144a8 8 0 0 1-8 8zM419.84 402.672c-13.232 0-24-10.768-24-24s10.768-24 24-24 24 10.768 24 24-10.768 24-24 24z m0-32a8 8 0 1 0 0 16 8 8 0 0 0 0-16zM515.84 402.672c-13.232 0-24-10.768-24-24s10.768-24 24-24a24.016 24.016 0 0 1 0 48z m0-32a8 8 0 1 0 0 16 8 8 0 0 0 0-16zM611.84 402.672c-13.232 0-24-10.768-24-24s10.768-24 24-24 24 10.768 24 24-10.768 24-24 24z m0-32a8 8 0 1 0 0.032 16.032 8 8 0 0 0-0.032-16.032z"
        fill="#e6e6e6" p-id="4393"></path>
    <path
        d="M295.792 192a80.096 80.096 0 0 0-97.328-78.176c-30.528 6.4-54.992 31.328-61.056 61.92a79.2 79.2 0 0 0 19.424 69.952c11.6 12.576 18.96 28.448 18.96 45.568v4.736h80v-4.72c0-17.2 7.52-33.088 19.136-45.776A78.912 78.912 0 0 0 295.792 192z"
        fill="#e6e6e6" p-id="4394"></path>
    <path
        d="M255.792 304h-80a8 8 0 0 1-8-8v-4.752c0-14.096-5.984-28.352-16.848-40.144-19.152-20.784-26.96-48.816-21.376-76.928 6.688-33.76 33.728-61.152 67.264-68.192a88.48 88.48 0 0 1 74.4 17.664A87.696 87.696 0 0 1 303.792 192c0 21.808-8.16 42.72-22.96 58.896-7.776 8.48-17.04 22.384-17.04 40.368v4.736a8 8 0 0 1-8 8z m-72.08-16h64.16c0.816-17.136 8.096-33.648 21.168-47.92A71.04 71.04 0 0 0 287.792 192c0-21.792-9.712-42.176-26.656-55.936s-39.152-19.024-61.024-14.416c-27.344 5.728-49.392 28.096-54.864 55.648-4.56 23.024 1.808 45.984 17.456 62.976 12.784 13.856 20.176 30.688 21.008 47.728z"
        fill="#e6e6e6" p-id="4395"></path>
    <path
        d="M215.792 384c-26.464 0-48-21.536-48-48v-40a8 8 0 0 1 8-8h80a8 8 0 0 1 8 8V336c0 26.464-21.536 48-48 48z m-32-80v32c0 17.648 14.352 32 32 32s32-14.352 32-32v-32h-64z"
        fill="#e6e6e6" p-id="4396"></path>
    <path
        d="M255.792 344h-80a8 8 0 0 1 0-16h80a8 8 0 0 1 0 16zM215.792 72a8 8 0 0 1-8-8V32a8 8 0 0 1 16 0v32a8 8 0 0 1-8 8zM135.792 99.312a8.032 8.032 0 0 1-5.664-2.336L107.504 74.336a8 8 0 0 1 11.312-11.312L141.44 85.664a8 8 0 0 1-5.648 13.648zM295.792 99.312a8 8 0 0 1-5.664-13.648l22.64-22.624a8 8 0 0 1 11.312 11.312L301.44 96.976a7.968 7.968 0 0 1-5.648 2.336zM215.792 304a8 8 0 0 1-8-8v-80a8 8 0 0 1 16 0v80a8 8 0 0 1-8 8z"
        fill="#e6e6e6" p-id="4397"></path>
    <path
        d="M352 1000a8 8 0 0 1-8-8l-0.016-239.232-48.992-43.232A328.128 328.128 0 0 1 184 463.584V432c0-10.624 0.768-20.848 1.44-28.56a7.824 7.824 0 0 1 8.656-7.28 8 8 0 0 1 7.28 8.656A319.2 319.2 0 0 0 200 432v31.6a312.128 312.128 0 0 0 105.568 233.952l51.696 45.616a8.016 8.016 0 0 1 2.704 6L360 992a8 8 0 0 1-8 8z"
        fill="#e6e6e6" p-id="4398"></path>
    <path
        d="M712 856H528a8 8 0 0 1 0-16h184c61.744 0 112-50.24 112-112V624a8 8 0 0 1 8-8h42.288c12.224 0 22.864-6.48 28.448-17.344 5.6-10.88 4.688-23.296-2.416-33.248l-74.832-104.752a7.984 7.984 0 0 1-1.488-4.656V432c0-172.032-139.968-312-312-312a309.584 309.584 0 0 0-181.408 58.512 8 8 0 1 1-9.328-13.008A325.472 325.472 0 0 1 512 104c180.864 0 328 147.136 328 328v21.44l73.344 102.672c10.48 14.688 11.872 33.808 3.616 49.872a47.84 47.84 0 0 1-42.672 26.032H840v96c0 70.56-57.424 127.984-128 127.984z"
        fill="#e6e6e6" p-id="4399"></path>
</svg>